<?xml version="1.0" encoding="UTF-8"?>
<svg version="1.1" xmlns="http://www.w3.org/2000/svg" width="1250" height="469">
<path d="M0 0 C1.70703125 1.62109375 1.70703125 1.62109375 1.95703125 4.30859375 C1.87453125 5.07171875 1.79203125 5.83484375 1.70703125 6.62109375 C2.47015625 6.12609375 3.23328125 5.63109375 4.01953125 5.12109375 C9.54792979 2.87225367 15.3160368 2.40102311 21.01953125 4.453125 C22.96716915 5.43801007 24.8324629 6.5048735 26.70703125 7.62109375 C30.10162667 9.1684858 30.10162667 9.1684858 33.70703125 9.62109375 C33.70703125 8.96109375 33.70703125 8.30109375 33.70703125 7.62109375 C43.0132889 3.81720517 51.71829953 0.71370896 61.484375 4.5546875 C72.10114303 9.64849712 78.4003889 16.49815613 82.51953125 27.55859375 C85.90425187 37.43550886 87.06946897 46.77574799 87.08203125 57.18359375 C87.10652344 58.25544922 87.13101563 59.32730469 87.15625 60.43164062 C87.18106137 67.19274011 86.45412375 72.84641748 82.70703125 78.62109375 C79.57846649 80.18537613 77.17990994 79.90116461 73.70703125 79.62109375 C69.88767268 78.16904932 66.60538194 76.51944444 63.70703125 73.62109375 C63.4765625 71.66796875 63.4765625 71.66796875 63.51953125 69.37109375 C63.52597656 68.6234375 63.53242187 67.87578125 63.5390625 67.10546875 C63.70703125 64.62109375 63.70703125 64.62109375 64.1875 61.85546875 C66.33851243 48.46420339 65.11574122 38.11614255 57.70703125 26.62109375 C56.54109663 25.24692745 56.54109663 25.24692745 53.33203125 25.24609375 C49.61032393 25.20471245 49.61032393 25.20471245 47.83203125 27.87109375 C45.87130238 32.66398655 45.62204595 36.41582621 45.75 41.625 C45.7724157 43.02016764 45.79386806 44.41535102 45.81445312 45.81054688 C45.85126256 47.98717893 45.89396404 50.16298504 45.95385742 52.33911133 C46.41752961 70.04976916 46.41752961 70.04976916 41.70703125 77.62109375 C38.40585874 79.86270389 35.74897068 79.86072152 31.80859375 79.21875 C28.2171867 78.1974019 25.01246246 76.6014483 22.70703125 73.62109375 C21.49113806 68.46142264 21.87979114 64.12969569 22.70703125 58.93359375 C24.26057374 47.82878464 24.15854181 38.25292642 17.70703125 28.62109375 C14.79264974 25.48252905 13.66408755 24.69332441 9.39453125 24.37109375 C8.06421875 24.49484375 8.06421875 24.49484375 6.70703125 24.62109375 C-0.57111931 35.89048817 1.38851433 49.33089028 3.67602539 61.88183594 C5.07476862 69.68230908 5.07476862 69.68230908 3.70703125 73.62109375 C1.812352 75.82136643 0.30307904 77.32306986 -2.29296875 78.62109375 C-4.70546567 78.79712522 -7.1244777 78.88854343 -9.54296875 78.93359375 C-10.8475 78.97097656 -12.15203125 79.00835937 -13.49609375 79.046875 C-17.86605859 78.5568275 -19.92943156 77.39901509 -23.29296875 74.62109375 C-29.08855537 64.6858024 -28.62589435 52.01431018 -28.54296875 40.87109375 C-28.53547607 39.55157715 -28.5279834 38.23206055 -28.52026367 36.87255859 C-28.21522518 9.21459929 -28.21522518 9.21459929 -21.29296875 1.62109375 C-15.92316233 -3.58090622 -6.31154753 -3.79553029 0 0 Z " fill="#000000" transform="translate(650.29296875,216.37890625)"/>
<path d="M0 0 C1.32185303 0.00519653 1.32185303 0.00519653 2.67041016 0.01049805 C11.91878804 0.16404385 22.80256564 1.21070893 29.89453125 7.77734375 C36.67989876 15.05799356 37.65329137 21.67124685 37.515625 31.45703125 C37.35655078 34.47638224 37.11016416 37.44332181 36.80859375 40.44921875 C36.21550985 46.74118239 36.12870689 52.995956 36.125 59.3125 C36.11275391 60.41078125 36.10050781 61.5090625 36.08789062 62.640625 C36.07669682 68.93900511 36.55867709 74.73148423 37.97924805 80.875 C38.3568765 83.6370824 38.08369915 85.64245631 37.3125 88.3125 C34.44331858 90.72261239 31.12749136 90.66602974 27.4765625 90.5703125 C23.71350434 90.12200593 20.75280876 88.91402305 17.3125 87.3125 C15.3125 84.3125 15.3125 84.3125 15.3125 81.3125 C14.63703125 81.58964844 13.9615625 81.86679687 13.265625 82.15234375 C12.37359375 82.51457031 11.4815625 82.87679687 10.5625 83.25 C9.23992187 83.78947266 9.23992187 83.78947266 7.890625 84.33984375 C-1.57857913 87.91231622 -11.2835617 86.69184256 -20.6875 83.3125 C-27.61847313 79.81086082 -32.19473429 75.79079713 -34.6875 68.3125 C-35.70541625 57.12996292 -33.76652806 50.31107068 -27.5625 41.1875 C-20.13655039 33.09275369 -11.64109811 28.36964959 -0.6875 27.3125 C4.79104802 27.34214582 10.09343738 27.57281246 15.3125 29.3125 C14.43109706 25.43432704 13.67895569 23.62782233 10.625 21 C3.95115759 17.60011802 -1.75996857 18.08853234 -8.6875 20.3125 C-9.656875 20.84875 -10.62625 21.385 -11.625 21.9375 C-16.5561168 24.15147081 -21.63713721 24.12189229 -26.8515625 22.73828125 C-28.75 22 -28.75 22 -31.6875 20.3125 C-32.6875 17.3125 -32.6875 17.3125 -31.5625 14.9375 C-23.6343995 3.8381593 -13.28998085 -0.08462542 0 0 Z M-10.6875 47.3125 C-12.98166355 50.16042716 -13.64457545 51.98749983 -14.125 55.625 C-13.44266093 61.37614356 -11.29059853 65.42650173 -7.5625 69.8125 C-3.30210738 72.03531354 0.61104018 72.23117606 5.3125 71.3125 C8.13674288 69.12227082 9.72758603 67.48232793 11.3125 64.3125 C11.87985892 59.66201706 11.7723631 56.21519423 9.625 52 C5.55935167 47.27505734 2.5148229 44.69947314 -3.76171875 44.21484375 C-6.79691448 44.36875834 -8.40454562 45.35568196 -10.6875 47.3125 Z " fill="#000000" transform="translate(430.6875,209.6875)"/>
<path d="M0 0 C6.79018358 4.27530077 10.0620809 10.8875855 11.8125 18.5625 C11.874375 19.696875 11.93625 20.83125 12 22 C12.05027344 22.66257813 12.10054687 23.32515625 12.15234375 24.0078125 C12.75385364 37.43351321 7.51910095 48.40888743 -1.25 58.1875 C-8.84767455 66.34754018 -16.9579386 72.21893648 -28.2578125 73.31640625 C-38.85909718 73.67754891 -48.92723963 71.69171263 -57.3125 64.84375 C-63.7784859 57.77906171 -65.32282063 49.37542032 -65.2109375 40.15625 C-64.36886094 27.55628957 -57.07294905 16.44506331 -48 8 C-41.22659364 2.79127109 -34.11369312 -0.45076534 -26 -3 C-17.19289403 -5.93570199 -8.12891542 -3.99847625 0 0 Z M-38 25 C-39.58343297 27.27144219 -40.75345891 29.50691782 -42 32 C-42.33 32.66 -42.66 33.32 -43 34 C-43.64827029 41.64958943 -41.90082614 45.32562022 -37.125 51.375 C-34.28070172 53.55005163 -32.58869538 53.93098663 -29 54 C-22.7433451 52.50036955 -17.76412951 49.77220352 -14.25 44.25 C-12.15838068 38.81178977 -11.42963064 34.90123119 -13.125 29.25 C-15.37801144 25.34478017 -17.61472016 22.98701235 -21.8125 21.25 C-28.64515982 20.46912459 -32.63718996 20.24660019 -38 25 Z " fill="#000000" transform="translate(605,222)"/>
<path d="M0 0 C1.22589844 -0.03738281 2.45179688 -0.07476562 3.71484375 -0.11328125 C7.0625 0.3125 7.0625 0.3125 9.484375 1.9921875 C11.42499193 4.84547081 11.50979525 6.32434137 11.375 9.75 C11.34019531 10.79542969 11.30539062 11.84085938 11.26953125 12.91796875 C10.9358124 18.38969863 10.55564586 23.85267079 10.0625 29.3125 C11.4546875 29.18875 11.4546875 29.18875 12.875 29.0625 C18.30352336 29.08470255 23.28091126 30.82451887 28.0625 33.3125 C31.49070656 37.42634787 31.50784923 41.78380352 31.3671875 46.96484375 C30.97804762 49.96321638 29.9427134 51.96223325 28.0625 54.3125 C21.67044144 53.58887073 15.38222924 52.50906638 9.0625 51.3125 C9.3925 52.3025 9.7225 53.2925 10.0625 54.3125 C10.23141258 55.91055068 10.35756285 57.5133161 10.45703125 59.1171875 C10.52365967 60.08350098 10.59028809 61.04981445 10.65893555 62.04541016 C10.73023682 63.0822998 10.80153809 64.11918945 10.875 65.1875 C11.55904682 74.47169562 12.8023248 83.44766907 14.8293457 92.53466797 C15.80241281 97.05096364 16.56020149 100.79906473 15.0625 105.3125 C12.69846083 108.03891014 11.23997102 108.29185913 7.63671875 108.7109375 C-6.23261788 108.62730331 -6.23261788 108.62730331 -10.9375 105.3125 C-13.42139304 100.38178695 -14.67775935 95.6749066 -15.5625 90.25 C-15.68729736 89.50685547 -15.81209473 88.76371094 -15.94067383 87.99804688 C-17.96047941 75.46372584 -18.07543312 62.97169511 -17.9375 50.3125 C-18.67355469 50.46847656 -19.40960938 50.62445313 -20.16796875 50.78515625 C-21.14378906 50.97980469 -22.11960937 51.17445313 -23.125 51.375 C-24.56939453 51.67083984 -24.56939453 51.67083984 -26.04296875 51.97265625 C-29.01251754 52.32130773 -31.09047005 52.19969067 -33.9375 51.3125 C-36.31401271 47.46481275 -36.25368548 43.73909665 -35.9375 39.3125 C-35.14538533 36.40807954 -34.39522097 34.78782562 -32.3125 32.625 C-27.56154407 29.99947172 -22.35252806 28.97406075 -16.9375 29.3125 C-16.999375 28.11625 -17.06125 26.92 -17.125 25.6875 C-17.11141848 17.13114318 -16.08288986 7.64271362 -9.9375 1.3125 C-6.48415458 0.16138486 -3.63856112 0.07254214 0 0 Z " fill="#000000" transform="translate(507.9375,186.6875)"/>
<path d="M0 0 C1.78072742 1.78072742 1.25615294 4.27643877 1.3125 6.6875 C1.23917079 13.53155941 1.23917079 13.53155941 -0.625 16.6875 C-3.55827981 19.54358824 -4.92415021 20 -9 20 C-10.06992187 19.67644531 -11.13984375 19.35289062 -12.2421875 19.01953125 C-21.28439065 16.56629318 -32.50881688 16.68195807 -41 21 C-45.82481576 24.16211002 -50.05418541 27.56281691 -51.75 33.25 C-52.78573115 40.80166007 -50.23712155 48.79336215 -46 55 C-39.81795431 60.03189765 -32.89336533 61.71757867 -25 61 C-19.63737315 59.27305237 -17.38277958 57.36487687 -14 53 C-10.53849716 50.69233144 -8.67868771 49.97576115 -4.5 50.125 C-0.7454682 51.06363295 3.18742287 52.18742287 6 55 C6.42326824 58.64010688 6.17802271 60.65137219 4.5 63.9375 C-1.71078913 71.54571668 -9.10750808 77.46470843 -19 79 C-34.93392477 80.04616678 -49.21611014 76.96628209 -61.55200195 66.41015625 C-63.98890261 64.03694124 -65.83067121 61.30372406 -67.625 58.4375 C-68.01034912 57.82253662 -68.39569824 57.20757324 -68.79272461 56.57397461 C-75.10730058 46.16062817 -77.32637628 36.20534129 -76 24 C-73.55078112 14.05905279 -67.48646499 7.41721906 -59 2 C-42.87329955 -6.78831199 -15.9258879 -11.67898446 0 0 Z " fill="#000000" transform="translate(851,216)"/>
<path d="M0 0 C3.87522803 1.69541226 5.46945393 3.10048686 7 7 C7.13525391 9.49511719 7.13525391 9.49511719 6.9765625 12.296875 C6.92483887 13.33046143 6.87311523 14.36404785 6.81982422 15.42895508 C6.75553223 16.5248999 6.69124023 17.62084473 6.625 18.75 C6.51337576 21.01942174 6.40399947 23.28895516 6.296875 25.55859375 C6.24337891 26.66315918 6.18988281 27.76772461 6.13476562 28.90576172 C5.76802425 37.32619681 5.72937077 45.7251414 6.5 54.125 C8.10815531 71.93653838 8.10815531 71.93653838 5.1875 77.375 C-0.5418446 80.29584235 -6.83694501 79.67930424 -13 78.25 C-16.25988599 76.89171417 -17.39971601 76.11166331 -19 73 C-23.57970368 53.64490196 -24.21086744 23.44633232 -16 5 C-11.39115449 -1.84343727 -7.65854512 -1.36285921 0 0 Z " fill="#000000" transform="translate(763,216)"/>
<path d="M0 0 C2.89018802 2.38015484 4.85151685 4.36891009 5.59375 8.1171875 C5.64928988 12.57426247 5.65516696 15.7626954 2.75 19.3125 C-1.46585174 23.22721947 -4.4955983 23.13880263 -10.1015625 23.109375 C-14.39615537 22.55289254 -16.00845993 20.91828113 -18.875 17.75 C-20.73856079 14.02287842 -20.44049975 9.8079268 -19.875 5.75 C-15.9300933 -1.88088129 -7.47230482 -3.24882818 0 0 Z " fill="#000000" transform="translate(764.875,184.25)"/>
</svg>
